# xmcd
#
# Track frame offsets: 
#        150
#        22145
#        43505
#        73918
#        93836
#        116715
#        142003
#        165704
#        191554
#        209667
#
# Disc length: 3056 seconds
#
# Revision: 0
# Processed by: cddbd v1.5.2PL0 Copyright (c) Steve Scherf et al.
# Submitted via: ExactAudioCopy v1.0b3
#
DISCID=980bee0a
DTITLE=Huong Lan, Son Tuyen - Thuong Hoai Ngan Nam
DYEAR=1991
DGENRE=
TTITLE0=Huong Lan - Chuyen dem mua
TTITLE1=Huong Lan - Bai ca cua nang
TTITLE2=Tuan Vu - Qua xom nho
TTITLE3=Huong Lan - Viet thu tinh
TTITLE4=Huong Lan - Chuyen tinh TTKH
TTITLE5=Son Tuyen - Thuong hoai ngan nam
TTITLE6=Son Tuyen - Bai hat nay cho anh
TTITLE7=Tuan Vu, Son Tuyen - Chuyen do khong em
TTITLE8=Son Tuyen - Bien tinh
TTITLE9=Son Tuyen - Nho
EXTD=
EXTT0=
EXTT1=
EXTT2=
EXTT3=
EXTT4=
EXTT5=
EXTT6=
EXTT7=
EXTT8=
EXTT9=
PLAYORDER=
